**ABCDEFGHIJKLMNOPQRSTUVWXYZabcdefghijklmnopqrstuvwxyz**************************
**PARASOLID !"#$%&'()*+,-./:;<=>?@[\]^_`{|}~0123456789**************************
**PART1;
MC=AMD64;
MC_MODEL=Intel64 Family 6 Model 42 Stepping 7, GenuineIntel;
MC_ID=unknown;
OS=Windows_NT;
OS_RELEASE=6.1;
FRU=Autodesk;
APPL=Autodesk Inventor 2012;
SITE=unknown;
USER=unknown;
FORMAT=text;
GUISE=transmit;
KEY=1226SxxxB;
FILE=G:\Disegni\Progetti\D8500÷D8599\D8514\Motori\4 - STEP_IPT non ancora pubblicati\BLM Step_ipt\BLM CAD\1226SxxxB.x_t;
DATE=Fri, 20 Sep 2013 11:17:12 GMT;
**PART2;
SCH=SCH_2300208_20000;
USFLD_SIZE=0;
**PART3;
**END_OF_HEADER*****************************************************************
T51 : TRANSMIT FILE created by modeller version 230020817 SCH_2300208_200000 12
 1 357 2 3 0 0 0 0 1e3 1e-8 0 0 0 1 0 1 1 4 5 6 7 8 9 10 0 0 0 0 81 1 2 357 11 1
 0 0 0 0 12 70 3 0 4 T1 0 0 4 20 1 13 13 13 4 4 0 1 0 14 0 0 15 0 50 5 277 0 16
 17 0 0 +0 -.0045 3044748630529995e-34 0 -1266229382377226e-46 1 .70710678118654
8 .707106781186548 89535938281659e-45 31 6 327 0 18 19 0 0 +0 -329219639418079e-
47 739557098644699e-48 0 -1266229382377226e-46 1 0 -1 0 .006 29 7 356 0 20 21 0
 0 -.006 0 19 8 2 0 1 15 0 22 V16 9 12 0 ?23 0 24 25 0 0 1 18 10 8 0 26 0 27 28
 ?1 17 26 0 29 30 31 10 32 33 0 34 -18 27 11 0 35 10 36 37 ?1 29 28 328 0 10 0 3
8 .00311523927527553 .000652981054687497 -.026 29 38 329 0 39 28 37 .00311523927
527553 .000652981054687497 -.036 18 39 9 0 30 36 40 38 ?1 29 37 330 0 27 38 41 .
003182938893538485 -305311331771918e-32 -.026 29 41 331 0 36 37 42 .003182938893
538485 -305311331771918e-32 -.036 18 36 13 0 43 27 39 41 ?1 29 42 332 0 44 41 45
 .003182938893538485 -305311331771918e-32 -.036 18 44 24 0 46 47 48 42 ?1 29 45
 333 0 40 42 49 .00311523927527553 -.000652981054687503 -.026 18 40 26 0 50 39 4
7 45 ?1 29 49 334 0 47 45 51 .00311523927527553 -.000652981054687503 -.036 18 47
 28 0 52 40 44 49 ?1 29 51 335 0 53 49 54 .00311523927527553 -.00065298105468750
3 -.036 18 53 39 0 55 56 57 51 ?1 29 54 336 0 48 51 58 .002915020298779175 -.001
27818490747833 -.026 18 48 41 0 59 44 56 54 ?1 29 58 337 0 56 54 60 .00291502029
8779175 -.00127818490747833 -.036 18 56 43 0 61 48 53 58 ?1 29 60 338 0 62 58 63
 .002915020298779175 -.00127818490747833 -.036 18 62 54 0 64 65 66 60 ?1 29 63 3
39 0 57 60 67 .00259079909160428 -.001849015972603385 -.026 18 57 56 0 68 53 65
 63 ?1 29 67 340 0 65 63 69 .00259079909160428 -.001849015972603385 -.036 18 65
 58 0 70 57 62 67 ?1 29 69 341 0 66 67 71 .00259079909160428 -.00184901597260338
5 -.036 18 66 70 0 72 62 73 69 ?1 29 71 342 0 74 69 75 .00311523927527553 .00065
2981054687497 -.036 18 74 77 0 76 77 78 71 ?1 29 75 343 0 73 71 79 .002915020298
77917 .00127818490747833 -.026 18 73 79 0 80 66 77 75 ?1 29 79 344 0 77 75 81 .0
0291502029877917 .00127818490747833 -.036 18 77 81 0 82 73 74 79 ?1 29 81 345 0
 83 79 84 .00291502029877917 .00127818490747833 -.036 18 83 92 0 85 86 87 81 ?1
 29 84 346 0 78 81 88 .00259079909160428 .001849015972603385 -.026 18 78 94 0 89
 74 86 84 ?1 29 88 347 0 86 84 90 .00259079909160428 .001849015972603385 -.036 1
8 86 96 0 91 78 83 88 ?1 29 90 348 0 87 88 92 .00259079909160428 .00184901597260
3385 -.036 18 87 108 0 93 83 94 90 ?1 29 92 349 0 94 90 95 0 -.003 4e-4 18 94 11
5 0 96 87 97 92 ?1 29 95 350 0 97 92 98 0 -.003 608949726105999e-33 18 97 118 0
 99 94 100 95 ?1 29 98 351 0 100 95 101 0 -.00275 4e-4 18 100 122 0 102 97 103 9
8 ?1 29 101 352 0 103 98 104 0 -.00275 .0019 18 103 127 0 105 100 106 101 ?1 29
 104 353 0 106 101 107 0 -6e-4 .0019 18 106 132 0 108 103 109 104 ?1 29 107 354
 0 109 104 21 0 -6e-4 .00515 18 109 137 0 110 106 111 107 ?1 29 21 355 0 111 107
 7 0 -.006 -.026 18 111 145 0 112 109 20 21 ?1 17 112 0 113 112 112 111 114 115
 0 114 -18 20 149 0 116 111 0 7 ?1 17 116 0 117 116 116 20 118 18 0 118 -15 117
 147 0 116 119 120 17 118 0 121 118 118 20 116 18 0 0 +16 18 148 0 ?118 115 0 6
 0 0 1 16 115 144 0 ?114 122 18 19 0 0 1 17 114 0 120 114 114 111 112 115 0 0 +1
6 122 25 0 ?35 123 115 124 0 0 1 31 19 326 0 115 125 6 0 +0 0 -.026 0 -126622938
2377226e-46 1 0 -1 0 .006 31 125 325 0 126 127 19 0 +0 -394430452610506e-47 .005
15 0 -1266229382377226e-46 1 0 -1 0 6e-4 16 126 136 0 ?128 129 130 125 0 0 1 31
 127 324 0 129 131 125 0 +0 -353277997683246e-47 .0019 0 -1266229382377226e-46 1
 0 -1 0 6e-4 16 129 131 0 ?132 133 126 127 0 0 1 31 131 323 0 133 134 127 0 +0 -
353277997683246e-47 .0019 0 -1266229382377226e-46 1 0 -1 0 .00275 16 133 126 0 ?
135 136 129 131 0 0 1 31 134 322 0 136 137 131 0 +0 -334284556947588e-47 4e-4 0
 -1266229382377226e-46 1 0 -1 0 .00275 16 136 121 0 ?138 139 133 134 0 0 1 31 13
7 321 0 140 141 134 0 +0 -329219639418079e-47 608949726105999e-33 0 -12662293823
77226e-46 1 0 -1 0 .003 16 140 117 0 ?142 143 139 137 0 0 1 31 141 320 0 139 144
 137 0 +0 -334284556947588e-47 4e-4 0 -1266229382377226e-46 1 0 -1 0 .003 16 139
 114 0 ?145 140 136 141 0 0 1 31 144 319 0 143 146 141 0 +.002399097242662785 .0
0211762423962511 -.036 0 -1266229382377226e-46 1 1 0 0 33e-5 16 143 109 0 ?147 1
48 140 144 0 0 1 30 146 318 0 148 149 144 0 +.00259079909160428 .001849015972603
385 -.026 0 0 -1 16 148 107 0 ?150 151 143 146 0 0 1 31 149 317 0 152 153 146 0
 +.002399097242662785 .00211762423962511 -.026 0 -1266229382377226e-46 1 1 0 0 3
3e-5 16 152 106 0 ?154 155 156 149 0 0 1 31 153 316 0 155 157 149 0 +.0027825009
4054577 .001580407705581665 -.026 0 -1266229382377226e-46 1 1 0 0 33e-5 16 155 1
01 0 ?158 159 152 153 0 0 1 31 157 315 0 151 160 153 0 +.00278250094054577 .0015
80407705581665 -.036 0 -1266229382377226e-46 1 1 0 0 33e-5 16 151 100 0 ?161 162
 148 157 0 0 1 31 160 314 0 163 164 157 0 +.00278250094054577 .00158040770558166
5 -.036 0 -1266229382377226e-46 1 1 0 0 33e-5 16 163 97 0 ?165 166 162 160 0 0 1
 30 164 313 0 166 167 160 0 +.00259079909160428 .001849015972603385 -.026 0 0 -1
 16 166 95 0 ?168 169 163 164 0 0 1 31 167 312 0 156 170 164 0 +.002782500940545
77 .001580407705581665 -.026 0 -1266229382377226e-46 1 1 0 0 33e-5 16 156 93 0 ?
171 152 172 167 0 0 1 30 170 311 0 162 173 167 0 +.00291502029877917 .0012781849
0747833 -.026 0 0 -1 16 162 91 0 ?85 163 151 170 0 0 1 31 173 310 0 159 174 170
 0 +.003047539657012575 .000975962109374998 -.026 0 -1266229382377226e-46 1 1 0
 0 33e-5 16 159 86 0 ?175 130 155 173 0 0 1 31 174 309 0 169 176 173 0 +.0030475
39657012575 .000975962109374998 -.036 0 -1266229382377226e-46 1 1 0 0 33e-5 16 1
69 85 0 ?177 178 166 174 0 0 1 31 176 308 0 179 180 174 0 +.003047539657012575 .
000975962109374998 -.036 0 -1266229382377226e-46 1 1 0 0 33e-5 16 179 82 0 ?181
 182 178 176 0 0 1 30 180 307 0 182 183 176 0 +.00291502029877917 .0012781849074
7833 -.026 0 0 -1 16 182 80 0 ?184 185 179 180 0 0 1 31 183 306 0 172 186 180 0
 +.003047539657012575 .000975962109374998 -.026 0 -1266229382377226e-46 1 1 0 0
 33e-5 16 172 78 0 ?34 156 33 183 0 0 1 30 186 305 0 178 187 183 0 +.00311523927
527553 .000652981054687497 -.026 0 0 -1 16 178 76 0 ?76 179 169 186 0 0 1 31 187
 304 0 185 188 186 0 +.00239909724266278 -.002117624239625115 -.036 0 -126622938
2377226e-46 1 1 0 0 33e-5 16 185 71 0 ?189 190 182 187 0 0 1 30 188 303 0 190 19
1 187 0 +.00259079909160428 -.001849015972603385 -.026 0 0 -1 16 190 69 0 ?192 1
93 185 188 0 0 1 31 191 302 0 194 195 188 0 +.00239909724266278 -.00211762423962
5115 -.026 0 -1266229382377226e-46 1 1 0 0 33e-5 16 194 68 0 ?196 197 198 191 0
 0 1 31 195 301 0 197 199 191 0 +.00278250094054577 -.001580407705581665 -.026 0
 -1266229382377226e-46 1 1 0 0 33e-5 16 197 63 0 ?200 201 194 195 0 0 1 31 199 3
00 0 193 202 195 0 +.00278250094054577 -.001580407705581665 -.036 0 -12662293823
77226e-46 1 1 0 0 33e-5 16 193 62 0 ?203 204 190 199 0 0 1 31 202 299 0 205 206
 199 0 +.00278250094054577 -.001580407705581665 -.036 0 -1266229382377226e-46 1
 1 0 0 33e-5 16 205 59 0 ?207 208 204 202 0 0 1 30 206 298 0 208 209 202 0 +.002
59079909160428 -.001849015972603385 -.026 0 0 -1 16 208 57 0 ?210 211 205 206 0
 0 1 31 209 297 0 198 212 206 0 +.00278250094054577 -.001580407705581665 -.026 0
 -1266229382377226e-46 1 1 0 0 33e-5 16 198 55 0 ?213 194 123 209 0 0 1 30 212 2
96 0 204 214 209 0 +.002915020298779175 -.00127818490747833 -.026 0 0 -1 16 204
 53 0 ?64 205 193 212 0 0 1 31 214 295 0 201 215 212 0 +.003047539657012575 -.00
0975962109374997 -.026 0 -1266229382377226e-46 1 1 0 0 33e-5 16 201 48 0 ?216 21
7 197 214 0 0 1 31 215 294 0 211 218 214 0 +.003047539657012575 -.00097596210937
4997 -.036 0 -1266229382377226e-46 1 1 0 0 33e-5 16 211 47 0 ?219 220 208 215 0
 0 1 31 218 293 0 221 222 215 0 +.003047539657012575 -.000975962109374997 -.036
 0 -1266229382377226e-46 1 1 0 0 33e-5 16 221 44 0 ?223 224 220 218 0 0 1 30 222
 292 0 224 225 218 0 +.002915020298779175 -.00127818490747833 -.026 0 0 -1 16 22
4 42 0 ?226 227 221 222 0 0 1 31 225 291 0 123 228 222 0 +.003047539657012575 -.
000975962109374997 -.026 0 -1266229382377226e-46 1 1 0 0 33e-5 16 123 40 0 ?229
 198 122 225 0 0 1 30 228 290 0 220 230 225 0 +.00311523927527553 -.000652981054
687503 -.026 0 0 -1 16 220 38 0 ?55 221 211 228 0 0 1 31 230 289 0 217 231 228 0
 +.003182938893538485 -33e-5 -.026 0 -1266229382377226e-46 1 1 0 0 33e-5 16 217
 33 0 ?232 33 201 230 0 0 1 31 231 288 0 227 233 230 0 +.003182938893538485 -33e
-5 -.036 0 -1266229382377226e-46 1 1 0 0 33e-5 16 227 32 0 ?234 235 224 231 0 0
 1 31 233 287 0 236 237 231 0 +.003182938893538485 -33e-5 -.036 0 -1266229382377
226e-46 1 1 0 0 33e-5 16 236 29 0 ?238 239 235 233 0 0 1 30 237 286 0 239 124 23
3 0 +.00311523927527553 -.000652981054687503 -.026 0 0 -1 16 239 27 0 ?240 241 2
36 237 0 0 1 31 124 285 0 122 242 237 0 +.003182938893538485 -33e-5 -.026 0 -126
6229382377226e-46 1 1 0 0 33e-5 30 242 284 0 235 243 124 0 +.003182938893538485
 -305311331771918e-32 -.026 0 0 -1 16 235 23 0 ?46 236 227 242 0 0 1 31 243 283
 0 33 244 242 0 +.003182938893538485 33e-5 -.026 0 -1266229382377226e-46 1 1 0 0
 33e-5 16 33 18 0 ?32 172 217 243 0 0 1 31 244 282 0 241 245 243 0 +.00318293889
3538485 33e-5 -.036 0 -1266229382377226e-46 1 1 0 0 33e-5 16 241 17 0 ?246 247 2
39 244 0 0 1 31 245 281 0 24 25 244 0 +.003182938893538485 33e-5 -.036 0 -126622
9382377226e-46 1 1 0 0 33e-5 16 24 14 0 ?248 9 247 245 0 0 1 30 25 280 0 9 249 2
45 0 +.003182938893538485 -305311331771918e-32 -.026 0 0 -1 31 249 279 0 130 250
 25 0 +.003182938893538485 33e-5 -.026 0 -1266229382377226e-46 1 1 0 0 33e-5 16
 130 10 0 ?251 126 159 249 0 0 1 30 250 278 0 247 0 249 0 +.00311523927527553 .0
00652981054687497 -.026 0 0 -1 16 247 7 0 ?30 24 241 250 0 0 1 17 30 0 29 246 26
 39 252 247 0 248 +15 29 16 0 30 253 0 17 246 0 29 31 30 36 254 241 0 0 +17 252
 0 255 256 248 10 30 247 0 257 -17 248 0 255 252 23 39 43 24 0 254 +15 255 6 0 2
52 14 0 17 23 0 255 248 256 36 31 9 0 246 +17 43 0 258 254 254 36 248 24 0 23 -1
7 254 0 258 43 43 39 246 241 0 0 -15 258 20 0 254 259 0 14 259 19 260 ?261 253 2
58 4 262 -0 0 261 253 22 81 1 260 162 263 259 264 0 265 266 267 14 261 21 266 ?2
68 259 269 4 270 +0 0 268 259 22 14 253 15 265 ?259 14 29 4 271 +0 0 259 14 22 5
0 262 249 0 259 271 270 0 +.003182938893538485 33e-5 -.036 0 -1266229382377226e-
46 1 .707106781186548 .707106781186548 89535938281659e-45 13 22 3 0 0 0 0 0 0 8
 14 14 14 5 272 ?253 0 255 4 273 +0 0 253 0 22 81 1 272 156 263 14 274 0 0 265 2
75 51 273 247 0 14 0 271 0 +.003182938893538485 33e-5 -.026 0 0 -1 33e-5 1 0 0 5
1 271 248 0 253 273 262 0 +.003182938893538485 33e-5 -.026 0 0 -1 33e-5 1 0 0 80
 1 263 276 277 8015 0 0 0 0 3 5 0 0 0 FFFFTFFFFFFFFF2 81 2 274 155 276 14 278 27
2 0 279 280 281 81 1 265 159 263 253 279 0 272 260 282 83 1 275 0 81 2 279 158 2
76 253 283 265 274 264 284 285 83 1 282 0 80 2 276 286 287 8014 0 0 0 0 3 5 0 0
 0 FFFFTFFFFFFFFF2 1 81 1 283 157 288 253 0 279 278 289 290 81 2 264 161 276 259
 289 260 279 291 292 293 83 4 284 1 0 .752941176470588 .752941176470588 82 1 285
 20 81 1 289 160 288 259 0 264 283 294 295 81 2 291 164 276 261 294 266 264 296
 297 298 83 4 292 1 0 .752941176470588 .752941176470588 82 1 293 20 81 1 294 163
 288 261 0 291 289 299 300 81 1 266 165 263 261 291 0 260 301 302 81 2 296 167 2
76 268 299 301 291 303 304 305 83 4 297 1 0 .752941176470588 .752941176470588 82
 1 298 20 14 268 30 301 ?306 261 307 4 308 +0 0 306 261 22 81 1 299 166 288 268
 0 296 294 309 310 81 1 301 168 263 268 296 0 266 311 312 81 2 303 170 276 306 3
09 311 296 313 314 315 83 4 304 1 0 .752941176470588 .752941176470588 82 1 305 2
0 14 306 34 311 ?316 268 317 4 318 -0 0 316 268 22 81 1 309 169 288 306 0 303 29
9 319 320 81 1 311 171 263 306 303 0 301 321 322 81 2 313 173 276 316 319 321 30
3 323 324 325 83 4 314 1 0 .752941176470588 .752941176470588 82 1 315 20 14 316
 36 321 ?326 306 327 4 328 +0 0 326 306 22 81 1 319 172 288 316 0 313 309 329 33
0 81 1 321 174 263 316 313 0 311 331 332 81 2 323 176 276 326 329 331 313 333 33
4 335 83 4 324 1 0 .752941176470588 .752941176470588 82 1 325 20 14 326 45 331 ?
336 316 337 4 338 +0 0 336 316 22 81 1 329 175 288 326 0 323 319 339 340 81 1 33
1 177 263 326 323 0 321 341 342 81 2 333 179 276 336 339 341 323 343 344 345 83
 4 334 1 0 .752941176470588 .752941176470588 82 1 335 20 14 336 49 341 ?346 326
 347 4 348 -0 0 346 326 22 81 1 339 178 288 336 0 333 329 349 350 81 1 341 180 2
63 336 333 0 331 351 352 81 2 343 182 276 346 349 351 333 353 354 355 83 4 344 1
 0 .752941176470588 .752941176470588 82 1 345 20 14 346 51 351 ?356 336 357 4 35
8 +0 0 356 336 22 81 1 349 181 288 346 0 343 339 359 360 81 1 351 183 263 346 34
3 0 341 361 362 81 2 353 185 276 356 359 361 343 363 364 365 83 4 354 1 0 .75294
1176470588 .752941176470588 82 1 355 20 14 356 60 361 ?366 346 367 4 368 +0 0 36
6 346 22 81 1 359 184 288 356 0 353 349 369 370 81 1 361 186 263 356 353 0 351 3
71 372 81 2 363 188 276 366 369 371 353 373 374 375 83 4 364 1 0 .75294117647058
8 .752941176470588 82 1 365 20 14 366 64 371 ?376 356 377 4 378 -0 0 376 356 22
 81 1 369 187 288 366 0 363 359 379 380 81 1 371 189 263 366 363 0 361 381 382 8
1 2 373 191 276 376 379 381 363 383 384 385 83 4 374 1 0 .752941176470588 .75294
1176470588 82 1 375 20 14 376 66 381 ?386 366 387 4 388 +0 0 386 366 22 81 1 379
 190 288 376 0 373 369 389 390 81 1 381 192 263 376 373 0 371 391 392 81 2 383 1
94 276 386 389 391 373 393 394 395 83 4 384 1 0 .752941176470588 .75294117647058
8 82 1 385 20 14 386 72 391 ?396 376 397 4 398 -0 0 396 376 22 81 1 389 193 288
 386 0 383 379 399 400 81 1 391 195 263 386 383 0 381 401 402 81 2 393 197 276 3
96 399 401 383 403 404 405 83 4 394 1 0 .752941176470588 .752941176470588 82 1 3
95 20 14 396 74 401 ?406 386 407 4 408 +0 0 406 386 22 81 1 399 196 288 396 0 39
3 389 409 410 81 1 401 198 263 396 393 0 391 411 412 81 2 403 200 276 406 409 41
1 393 413 414 415 83 4 404 1 0 .752941176470588 .752941176470588 82 1 405 20 14
 406 83 411 ?416 396 417 4 418 +0 0 416 396 22 81 1 409 199 288 406 0 403 399 41
9 420 81 1 411 201 263 406 403 0 401 421 422 81 2 413 203 276 416 419 421 403 42
3 424 425 83 4 414 1 0 .752941176470588 .752941176470588 82 1 415 20 14 416 87 4
21 ?426 406 427 4 428 -0 0 426 406 22 81 1 419 202 288 416 0 413 409 429 430 81
 1 421 204 263 416 413 0 411 431 432 81 2 423 206 276 426 429 431 413 433 434 43
5 83 4 424 1 0 .752941176470588 .752941176470588 82 1 425 20 14 426 89 431 ?436
 416 437 4 438 +0 0 436 416 22 81 1 429 205 288 426 0 423 419 439 440 81 1 431 2
07 263 426 423 0 421 441 442 81 2 433 209 276 436 439 441 423 443 444 445 83 4 4
34 1 0 .752941176470588 .752941176470588 82 1 435 20 14 436 98 441 ?446 426 447
 4 448 +0 0 446 426 22 81 1 439 208 288 436 0 433 429 449 450 81 1 441 210 263 4
36 433 0 431 451 452 81 2 443 212 276 446 449 451 433 453 454 455 83 4 444 1 0 .
752941176470588 .752941176470588 82 1 445 20 14 446 102 451 ?456 436 457 4 458 -
0 0 456 436 22 81 1 449 211 288 446 0 443 439 459 460 81 1 451 213 263 446 443 0
 441 461 462 81 2 453 215 276 456 459 461 443 463 464 465 83 4 454 1 0 .75294117
6470588 .752941176470588 82 1 455 20 14 456 104 461 ?466 446 467 4 468 +0 0 466
 446 22 81 1 459 214 288 456 0 453 449 469 470 81 1 461 216 263 456 453 0 451 47
1 472 81 2 463 218 276 466 469 471 453 473 474 475 83 4 464 1 0 .752941176470588
 .752941176470588 82 1 465 20 14 466 110 471 ?476 456 477 4 478 -0 0 476 456 22
 81 1 469 217 288 466 0 463 459 479 480 81 1 471 219 263 466 463 0 461 481 482 8
1 2 473 221 276 476 479 481 463 483 484 485 83 4 474 1 0 .752941176470588 .75294
1176470588 82 1 475 20 14 476 112 481 ?486 466 487 4 488 +0 0 486 466 22 81 1 47
9 220 288 476 0 473 469 489 490 81 1 481 222 263 476 473 0 471 491 492 81 2 483
 224 276 486 489 491 473 493 494 495 83 4 484 1 0 .3215686274509805 0 82 1 485 4
1 14 486 119 491 ?496 476 497 4 498 +0 0 496 476 22 81 1 489 223 288 486 0 483 4
79 499 500 81 1 491 225 263 486 483 0 481 501 502 81 2 493 227 276 496 499 501 4
83 503 504 505 83 4 494 1 0 .3215686274509805 0 82 1 495 41 14 496 124 501 ?506
 486 507 4 508 +0 0 506 486 22 81 1 499 226 288 496 0 493 489 509 510 81 1 501 2
28 263 496 493 0 491 511 512 81 2 503 230 276 506 509 511 493 513 514 515 83 4 5
04 1 0 .3215686274509805 0 82 1 505 41 14 506 129 511 ?516 496 517 4 518 +0 0 51
6 496 22 81 1 509 229 288 506 0 503 499 519 520 81 1 511 231 263 506 503 0 501 5
21 522 81 2 513 233 276 516 519 521 503 523 524 525 83 4 514 1 0 .32156862745098
05 0 82 1 515 41 14 516 134 521 ?526 506 527 4 528 +0 0 526 506 22 81 1 519 232
 288 516 0 513 509 529 530 81 1 521 234 263 516 513 0 511 531 532 81 2 523 236 2
76 526 529 531 513 533 534 535 83 4 524 1 0 .752941176470588 .752941176470588 82
 1 525 20 14 526 139 531 ?536 516 537 4 538 +0 0 536 516 22 81 1 529 235 288 526
 0 523 519 539 540 81 1 531 237 263 526 523 0 521 541 542 81 2 533 239 276 536 5
39 541 523 543 544 545 83 4 534 1 0 .752941176470588 .752941176470588 82 1 535 2
0 14 536 141 541 ?119 526 546 4 547 +0 0 119 526 22 81 1 539 238 288 536 0 533 5
29 548 549 81 1 541 240 263 536 533 0 531 550 551 81 2 543 242 276 119 548 550 5
33 552 553 554 83 4 544 1 0 .3215686274509805 0 82 1 545 41 14 119 146 550 ?16 5
36 117 4 17 +0 0 16 536 22 81 1 548 241 288 119 0 543 539 555 556 81 1 550 243 2
63 119 543 0 541 557 558 81 2 552 245 276 16 555 557 543 0 559 560 83 4 553 1 0
 .3215686274509805 0 82 1 554 41 14 16 151 557 ?0 119 561 4 5 +0 0 0 119 22 81 1
 555 244 288 16 0 552 548 0 562 81 1 557 246 263 16 552 0 550 0 563 83 4 559 1 0
 .3215686274509805 0 82 1 560 41 83 1 563 0 80 1 288 0 564 8001 0 0 0 0 3 5 0 0
 0 FFFFTFTFFFFFFF2 83 3 562 .440522998571396 .440522998571396 .440522998571396 7
9 15 564 SDL/TYSA_COLOUR15 561 152 0 99 16 121 17 99 0 561 99 99 97 142 140 0 14
2 -15 121 153 0 118 16 0 17 142 0 565 142 142 97 99 140 0 0 +15 565 116 0 142 47
6 0 83 1 558 0 83 3 556 .440522998571396 .440522998571396 .440522998571396 51 17
 276 0 119 547 5 0 +0 -1646098197090395e-48 -.013 0 -1266229382377226e-46 1 .006
 0 -1 0 50 547 275 0 536 538 17 0 +0 -.003 -.026 0 1266229382377226e-46 -1 .7071
06781186548 .707106781186548 89535938281659e-45 50 538 274 0 526 528 547 0 +0 -3
e-4 .00515 0 -1266229382377226e-46 1 .707106781186548 .707106781186548 895359382
81659e-45 51 528 273 0 516 518 538 0 +0 -373854225146876e-47 .003525 0 -12662293
82377226e-46 1 6e-4 0 -1 0 50 518 272 0 506 508 528 0 +0 -.001675 .0019 0 -12662
29382377226e-46 1 .707106781186548 .707106781186548 89535938281659e-45 51 508 27
1 0 496 498 518 0 +0 -343781277315417e-47 .00115 0 -1266229382377226e-46 1 .0027
5 0 -1 0 50 498 270 0 486 488 508 0 +0 -.002875 4e-4 0 -1266229382377226e-46 1 .
707106781186548 .707106781186548 89535938281659e-45 51 488 269 0 476 478 498 0 +
0 -3317520981828335e-48 2e-4 0 -1266229382377226e-46 1 .003 0 -1 0 50 478 268 0
 466 468 488 0 +.002399097242662785 .00211762423962511 -.036 0 -1266229382377226
e-46 1 .707106781186548 .707106781186548 89535938281659e-45 51 468 267 0 456 458
 478 0 +.002399097242662785 .00211762423962511 -.026 0 0 -1 33e-5 1 0 0 50 458 2
66 0 446 448 468 0 +.00278250094054577 .001580407705581665 -.036 0 -126622938237
7226e-46 1 .707106781186548 .707106781186548 89535938281659e-45 51 448 265 0 436
 438 458 0 +.00278250094054577 .001580407705581665 -.026 0 0 -1 33e-5 1 0 0 51 4
38 264 0 426 428 448 0 +.00278250094054577 .001580407705581665 -.026 0 0 -1 33e-
5 1 0 0 50 428 263 0 416 418 438 0 +.003047539657012575 .000975962109374998 -.03
6 0 -1266229382377226e-46 1 .707106781186548 .707106781186548 89535938281659e-45
 51 418 262 0 406 408 428 0 +.003047539657012575 .000975962109374998 -.026 0 0 -
1 33e-5 1 0 0 51 408 261 0 396 398 418 0 +.003047539657012575 .00097596210937499
8 -.026 0 0 -1 33e-5 1 0 0 50 398 260 0 386 388 408 0 +.00239909724266278 -.0021
17624239625115 -.036 0 -1266229382377226e-46 1 .707106781186548 .707106781186548
 89535938281659e-45 51 388 259 0 376 378 398 0 +.00239909724266278 -.00211762423
9625115 -.026 0 0 -1 33e-5 1 0 0 50 378 258 0 366 368 388 0 +.00278250094054577
 -.001580407705581665 -.036 0 -1266229382377226e-46 1 .707106781186548 .70710678
1186548 89535938281659e-45 51 368 257 0 356 358 378 0 +.00278250094054577 -.0015
80407705581665 -.026 0 0 -1 33e-5 1 0 0 51 358 256 0 346 348 368 0 +.00278250094
054577 -.001580407705581665 -.026 0 0 -1 33e-5 1 0 0 50 348 255 0 336 338 358 0
 +.003047539657012575 -.000975962109374997 -.036 0 -1266229382377226e-46 1 .7071
06781186548 .707106781186548 89535938281659e-45 51 338 254 0 326 328 348 0 +.003
047539657012575 -.000975962109374997 -.026 0 0 -1 33e-5 1 0 0 51 328 253 0 316 3
18 338 0 +.003047539657012575 -.000975962109374997 -.026 0 0 -1 33e-5 1 0 0 50 3
18 252 0 306 308 328 0 +.003182938893538485 -33e-5 -.036 0 -1266229382377226e-46
 1 .707106781186548 .707106781186548 89535938281659e-45 51 308 251 0 268 270 318
 0 +.003182938893538485 -33e-5 -.026 0 0 -1 33e-5 1 0 0 51 270 250 0 261 262 308
 0 +.003182938893538485 -33e-5 -.026 0 0 -1 33e-5 1 0 0 83 1 551 0 83 3 549 .440
522998571396 .440522998571396 .440522998571396 15 546 142 0 251 536 113 17 251 0
 546 175 35 10 256 130 0 566 +15 113 143 0 112 536 0 17 175 0 546 158 251 73 257
 159 0 567 +17 35 0 546 251 229 27 50 122 0 32 +17 256 0 255 23 252 27 251 130 0
 568 -17 566 0 407 80 181 10 76 178 0 252 -15 407 75 0 566 396 0 17 80 0 407 184
 566 73 34 172 0 171 -17 181 0 407 566 184 74 82 179 0 569 +17 76 0 417 177 257
 74 566 178 0 181 +15 417 84 0 76 406 0 17 177 0 417 570 76 77 569 169 0 0 +17 2
57 0 417 76 570 10 175 159 0 0 -17 570 0 417 257 177 73 184 182 0 571 -17 184 0
 407 181 80 77 570 182 0 177 +17 571 0 447 85 572 73 158 155 0 0 -15 447 99 0 85
 436 0 17 85 0 447 161 571 83 567 162 0 165 +17 572 0 447 571 161 78 168 166 0 5
73 -17 158 0 546 154 175 78 571 155 0 572 +17 154 0 546 171 158 78 574 152 0 158
 +17 171 0 546 34 154 73 89 156 0 175 +17 574 0 467 150 573 78 154 152 0 154 -15
 467 105 0 574 456 0 17 150 0 467 147 574 87 573 148 0 147 +17 573 0 467 574 147
 78 150 148 0 0 -17 147 0 467 573 150 87 93 143 0 0 +17 93 0 477 93 93 87 147 14
3 0 150 -15 477 111 0 93 466 0 17 34 0 546 32 171 10 80 172 0 251 +17 89 0 437 1
68 567 78 171 156 0 574 -15 437 90 0 567 426 0 17 168 0 437 165 89 86 572 166 0
 161 +17 567 0 437 89 165 73 85 162 0 570 -17 165 0 437 567 168 83 91 163 0 575
 +17 91 0 457 575 575 86 165 163 0 168 -17 575 0 457 91 91 83 161 151 0 0 -15 45
7 103 0 91 446 0 17 161 0 447 572 85 86 575 151 0 0 +17 32 0 546 232 34 27 26 33
 0 256 +17 232 0 546 216 32 40 576 217 0 577 +17 216 0 546 200 232 48 578 201 0
 579 +17 576 0 307 46 580 27 232 217 0 0 -17 577 0 327 59 223 40 55 220 0 580 -1
5 327 37 0 577 316 0 17 59 0 327 226 577 48 229 123 0 213 -17 223 0 327 577 226
 53 61 221 0 581 +17 55 0 337 219 578 53 577 220 0 223 +17 580 0 307 576 234 40
 240 239 0 578 -15 307 31 0 46 268 0 17 234 0 307 580 46 47 582 227 0 0 +17 240
 0 269 238 50 47 580 239 0 234 +17 578 0 337 55 583 40 216 201 0 0 -15 337 46 0
 55 326 0 17 583 0 337 578 219 48 226 224 0 584 -17 219 0 337 583 55 56 581 211
 0 0 +17 226 0 327 223 59 56 583 224 0 219 +17 584 0 367 64 585 48 200 197 0 0 -
15 367 61 0 64 356 0 17 64 0 367 203 584 62 579 204 0 207 +17 585 0 367 584 203
 57 210 208 0 586 -17 200 0 546 196 216 57 584 197 0 585 +17 196 0 546 213 200 5
7 587 194 0 200 +17 213 0 546 229 196 48 68 198 0 216 +17 587 0 387 192 586 57 1
96 194 0 196 -15 387 67 0 587 376 0 17 192 0 387 189 587 66 586 190 0 189 +17 58
6 0 387 587 189 57 192 190 0 0 -17 189 0 387 586 192 66 72 185 0 0 +17 72 0 397
 72 72 66 189 185 0 192 -15 397 73 0 72 386 0 17 229 0 546 35 213 40 59 123 0 23
2 +17 68 0 357 210 579 57 213 198 0 587 -15 357 52 0 579 346 0 17 210 0 357 207
 68 65 585 208 0 203 +17 579 0 357 68 207 48 64 204 0 583 -17 207 0 357 579 210
 62 70 205 0 588 +17 70 0 377 588 588 65 207 205 0 210 -17 588 0 377 70 70 62 20
3 193 0 0 -15 377 65 0 70 366 0 17 203 0 367 585 64 65 588 193 0 0 +17 581 0 347
 61 61 53 219 211 0 0 -15 347 50 0 61 336 0 17 61 0 347 581 581 56 223 221 0 226
 -15 269 22 0 568 261 0 17 238 0 269 568 240 44 52 236 0 582 +17 50 0 269 240 56
8 40 35 122 0 229 -17 568 0 269 50 238 27 46 235 0 31 -17 46 0 307 234 576 44 56
8 235 0 238 +17 31 0 29 26 246 27 23 9 0 576 -17 52 0 317 582 582 47 238 236 0 2
40 -17 582 0 317 52 52 44 234 227 0 0 -15 317 35 0 52 306 0 17 569 0 427 82 82 7
4 177 169 0 0 -15 427 88 0 82 416 0 17 82 0 427 569 569 77 181 179 0 184 -83 1 5
42 0 83 3 540 .835294008255005 .835294008255005 .835294008255005 15 537 140 0 12
8 526 0 17 128 0 537 128 128 109 110 126 0 0 +17 110 0 527 110 110 109 128 126 0
 128 -15 527 135 0 110 516 589 15 589 138 0 132 516 0 17 132 0 589 132 132 106 1
08 129 0 0 +17 108 0 517 108 108 106 132 129 0 132 -15 517 130 0 108 506 590 15
 590 133 0 135 506 0 17 135 0 590 135 135 103 105 133 0 0 +17 105 0 507 105 105
 103 135 133 0 135 -15 507 125 0 105 496 591 15 591 128 0 138 496 0 17 138 0 591
 138 138 100 102 136 0 0 +17 102 0 497 102 102 100 138 136 0 138 -15 497 120 0 1
02 486 592 15 592 123 0 145 486 0 17 145 0 592 145 145 94 96 139 0 0 +17 96 0 48
7 96 96 94 145 139 0 145 -15 487 113 0 96 476 565 83 1 532 0 83 3 530 .835294008
255005 .835294008255005 .835294008255005 83 1 522 0 83 3 520 .440522998571396 .4
40522998571396 .440522998571396 83 1 512 0 83 3 510 .440522998571396 .4405229985
71396 .440522998571396 83 1 502 0 83 3 500 .440522998571396 .440522998571396 .44
0522998571396 83 1 492 0 83 3 490 .440522998571396 .440522998571396 .44052299857
1396 83 1 482 0 83 3 480 .835294008255005 .835294008255005 .835294008255005 83 1
 472 0 83 3 470 .835294008255005 .835294008255005 .835294008255005 83 1 462 0 83
 3 460 .835294008255005 .835294008255005 .835294008255005 83 1 452 0 83 3 450 .8
35294008255005 .835294008255005 .835294008255005 83 1 442 0 83 3 440 .8352940082
55005 .835294008255005 .835294008255005 83 1 432 0 83 3 430 .835294008255005 .83
5294008255005 .835294008255005 83 1 422 0 83 3 420 .835294008255005 .83529400825
5005 .835294008255005 83 1 412 0 83 3 410 .835294008255005 .835294008255005 .835
294008255005 83 1 402 0 83 3 400 .835294008255005 .835294008255005 .835294008255
005 83 1 392 0 83 3 390 .835294008255005 .835294008255005 .835294008255005 83 1
 382 0 83 3 380 .835294008255005 .835294008255005 .835294008255005 83 1 372 0 83
 3 370 .835294008255005 .835294008255005 .835294008255005 83 1 362 0 83 3 360 .8
35294008255005 .835294008255005 .835294008255005 83 1 352 0 83 3 350 .8352940082
55005 .835294008255005 .835294008255005 83 1 342 0 83 3 340 .835294008255005 .83
5294008255005 .835294008255005 83 1 332 0 83 3 330 .835294008255005 .83529400825
5005 .835294008255005 83 1 322 0 83 3 320 .835294008255005 .835294008255005 .835
294008255005 83 1 312 0 83 3 310 .835294008255005 .835294008255005 .835294008255
005 83 1 302 0 83 3 300 .835294008255005 .835294008255005 .835294008255005 83 3
 295 .835294008255005 .835294008255005 .835294008255005 81 1 278 154 288 14 0 27
4 0 283 593 83 3 290 .835294008255005 .835294008255005 .835294008255005 83 3 593
 .835294008255005 .835294008255005 .835294008255005 79 21 287 SDL/TYSA_REFLECTIV
ITY83 4 280 1 0 .752941176470588 .752941176470588 82 1 281 20 79 21 277 SDL/TYSA
_TRANSLUCENCY83 1 267 0 15 120 150 0 114 119 0 19 15 1 0 1 0 8 4 S74 20 13 4 0 0
 555 552 557 2 0 0 0 0 0 0 0 0 0 0 0 0 0 0 0 0 80 1 11 594 595 8017 0 0 0 0 0 0
 0 0 0 TTTTTTTTTTTTTF3 84 7 12 Solido179 13 595 SDL/TYSA_NAME1 0 
